<mxfile host="app.diagrams.net" modified="2023-12-26T11:02:11.603Z" agent="Mozilla/5.0 (Windows NT 10.0; Win64; x64) AppleWebKit/537.36 (KHTML, like Gecko) Chrome/119.0.0.0 Safari/537.36 Edg/119.0.0.0" etag="0uwrzF_vKVx0mFQzMaU4" version="21.3.2" type="github">
  <diagram id="C5RBs43oDa-KdzZeNtuy" name="Page-1">
    <mxGraphModel dx="1042" dy="577" grid="1" gridSize="10" guides="1" tooltips="1" connect="1" arrows="1" fold="1" page="1" pageScale="1" pageWidth="827" pageHeight="1169" math="0" shadow="0">
      <root>
        <mxCell id="WIyWlLk6GJQsqaUBKTNV-0" />
        <mxCell id="WIyWlLk6GJQsqaUBKTNV-1" parent="WIyWlLk6GJQsqaUBKTNV-0" />
        <mxCell id="hnKrM7pCxcYFdensCzO5-0" value="水质检测设备" style="rounded=0;whiteSpace=wrap;html=1;fontSize=17;" vertex="1" parent="WIyWlLk6GJQsqaUBKTNV-1">
          <mxGeometry x="120" y="170" width="120" height="60" as="geometry" />
        </mxCell>
        <mxCell id="hnKrM7pCxcYFdensCzO5-4" value="" style="endArrow=classic;html=1;rounded=0;exitX=1;exitY=0.5;exitDx=0;exitDy=0;entryX=0;entryY=0.5;entryDx=0;entryDy=0;entryPerimeter=0;" edge="1" parent="WIyWlLk6GJQsqaUBKTNV-1" source="hnKrM7pCxcYFdensCzO5-0" target="hnKrM7pCxcYFdensCzO5-5">
          <mxGeometry width="50" height="50" relative="1" as="geometry">
            <mxPoint x="390" y="330" as="sourcePoint" />
            <mxPoint x="300" y="200" as="targetPoint" />
          </mxGeometry>
        </mxCell>
        <mxCell id="hnKrM7pCxcYFdensCzO5-21" value="" style="edgeStyle=orthogonalEdgeStyle;rounded=0;orthogonalLoop=1;jettySize=auto;html=1;" edge="1" parent="WIyWlLk6GJQsqaUBKTNV-1" source="hnKrM7pCxcYFdensCzO5-5" target="hnKrM7pCxcYFdensCzO5-20">
          <mxGeometry relative="1" as="geometry" />
        </mxCell>
        <mxCell id="hnKrM7pCxcYFdensCzO5-5" value="水质信息(XML\JSON)" style="strokeWidth=2;html=1;shape=mxgraph.flowchart.annotation_1;align=left;pointerEvents=1;" vertex="1" parent="WIyWlLk6GJQsqaUBKTNV-1">
          <mxGeometry x="330" y="165" width="130" height="70" as="geometry" />
        </mxCell>
        <mxCell id="hnKrM7pCxcYFdensCzO5-19" value="检测水质" style="text;html=1;align=center;verticalAlign=middle;resizable=0;points=[];autosize=1;strokeColor=none;fillColor=none;fontSize=17;" vertex="1" parent="WIyWlLk6GJQsqaUBKTNV-1">
          <mxGeometry x="240" y="170" width="90" height="30" as="geometry" />
        </mxCell>
        <mxCell id="hnKrM7pCxcYFdensCzO5-25" style="edgeStyle=orthogonalEdgeStyle;rounded=0;orthogonalLoop=1;jettySize=auto;html=1;exitX=0.5;exitY=1;exitDx=0;exitDy=0;entryX=0.426;entryY=-0.069;entryDx=0;entryDy=0;entryPerimeter=0;" edge="1" parent="WIyWlLk6GJQsqaUBKTNV-1" source="hnKrM7pCxcYFdensCzO5-20" target="hnKrM7pCxcYFdensCzO5-24">
          <mxGeometry relative="1" as="geometry" />
        </mxCell>
        <mxCell id="hnKrM7pCxcYFdensCzO5-20" value="数据清洗" style="rounded=1;whiteSpace=wrap;html=1;fontSize=17;" vertex="1" parent="WIyWlLk6GJQsqaUBKTNV-1">
          <mxGeometry x="540" y="170" width="120" height="60" as="geometry" />
        </mxCell>
        <mxCell id="hnKrM7pCxcYFdensCzO5-22" value="发送信息" style="text;html=1;align=center;verticalAlign=middle;resizable=0;points=[];autosize=1;strokeColor=none;fillColor=none;fontSize=15;" vertex="1" parent="WIyWlLk6GJQsqaUBKTNV-1">
          <mxGeometry x="460" y="170" width="80" height="30" as="geometry" />
        </mxCell>
        <mxCell id="hnKrM7pCxcYFdensCzO5-28" style="edgeStyle=orthogonalEdgeStyle;rounded=0;orthogonalLoop=1;jettySize=auto;html=1;exitX=0.5;exitY=1;exitDx=0;exitDy=0;exitPerimeter=0;entryX=0.5;entryY=0;entryDx=0;entryDy=0;" edge="1" parent="WIyWlLk6GJQsqaUBKTNV-1" source="hnKrM7pCxcYFdensCzO5-24" target="hnKrM7pCxcYFdensCzO5-27">
          <mxGeometry relative="1" as="geometry" />
        </mxCell>
        <mxCell id="hnKrM7pCxcYFdensCzO5-32" style="edgeStyle=orthogonalEdgeStyle;rounded=0;orthogonalLoop=1;jettySize=auto;html=1;exitX=0;exitY=0.5;exitDx=0;exitDy=0;exitPerimeter=0;entryX=1;entryY=0.5;entryDx=0;entryDy=0;" edge="1" parent="WIyWlLk6GJQsqaUBKTNV-1" source="hnKrM7pCxcYFdensCzO5-24" target="hnKrM7pCxcYFdensCzO5-31">
          <mxGeometry relative="1" as="geometry" />
        </mxCell>
        <mxCell id="hnKrM7pCxcYFdensCzO5-24" value="正确的水质信息" style="strokeWidth=2;html=1;shape=mxgraph.flowchart.annotation_1;align=left;pointerEvents=1;fontSize=16;" vertex="1" parent="WIyWlLk6GJQsqaUBKTNV-1">
          <mxGeometry x="540" y="290" width="140" height="70" as="geometry" />
        </mxCell>
        <mxCell id="hnKrM7pCxcYFdensCzO5-26" value="删除不合法输入" style="text;html=1;align=center;verticalAlign=middle;resizable=0;points=[];autosize=1;strokeColor=none;fillColor=none;fontSize=15;" vertex="1" parent="WIyWlLk6GJQsqaUBKTNV-1">
          <mxGeometry x="600" y="250" width="130" height="30" as="geometry" />
        </mxCell>
        <mxCell id="hnKrM7pCxcYFdensCzO5-27" value="数据库" style="rounded=0;whiteSpace=wrap;html=1;fontSize=17;" vertex="1" parent="WIyWlLk6GJQsqaUBKTNV-1">
          <mxGeometry x="550" y="415" width="120" height="60" as="geometry" />
        </mxCell>
        <mxCell id="hnKrM7pCxcYFdensCzO5-29" value="保存到数据库" style="text;html=1;align=center;verticalAlign=middle;resizable=0;points=[];autosize=1;strokeColor=none;fillColor=none;fontSize=17;" vertex="1" parent="WIyWlLk6GJQsqaUBKTNV-1">
          <mxGeometry x="600" y="368" width="130" height="30" as="geometry" />
        </mxCell>
        <mxCell id="hnKrM7pCxcYFdensCzO5-34" style="edgeStyle=orthogonalEdgeStyle;rounded=0;orthogonalLoop=1;jettySize=auto;html=1;exitX=0.5;exitY=1;exitDx=0;exitDy=0;" edge="1" parent="WIyWlLk6GJQsqaUBKTNV-1" source="hnKrM7pCxcYFdensCzO5-31">
          <mxGeometry relative="1" as="geometry">
            <mxPoint x="395" y="410" as="targetPoint" />
          </mxGeometry>
        </mxCell>
        <mxCell id="hnKrM7pCxcYFdensCzO5-31" value="数据分析" style="rounded=1;whiteSpace=wrap;html=1;fontSize=17;" vertex="1" parent="WIyWlLk6GJQsqaUBKTNV-1">
          <mxGeometry x="335" y="295" width="120" height="60" as="geometry" />
        </mxCell>
        <mxCell id="hnKrM7pCxcYFdensCzO5-33" value="&lt;font style=&quot;font-size: 15px;&quot;&gt;水质信息&lt;/font&gt;" style="text;html=1;align=center;verticalAlign=middle;resizable=0;points=[];autosize=1;strokeColor=none;fillColor=none;" vertex="1" parent="WIyWlLk6GJQsqaUBKTNV-1">
          <mxGeometry x="455" y="290" width="80" height="30" as="geometry" />
        </mxCell>
        <mxCell id="hnKrM7pCxcYFdensCzO5-37" value="" style="edgeStyle=orthogonalEdgeStyle;rounded=0;orthogonalLoop=1;jettySize=auto;html=1;" edge="1" parent="WIyWlLk6GJQsqaUBKTNV-1" source="hnKrM7pCxcYFdensCzO5-36" target="hnKrM7pCxcYFdensCzO5-27">
          <mxGeometry relative="1" as="geometry" />
        </mxCell>
        <mxCell id="hnKrM7pCxcYFdensCzO5-40" style="edgeStyle=orthogonalEdgeStyle;rounded=0;orthogonalLoop=1;jettySize=auto;html=1;exitX=0;exitY=0.5;exitDx=0;exitDy=0;exitPerimeter=0;" edge="1" parent="WIyWlLk6GJQsqaUBKTNV-1" source="hnKrM7pCxcYFdensCzO5-36" target="hnKrM7pCxcYFdensCzO5-39">
          <mxGeometry relative="1" as="geometry" />
        </mxCell>
        <mxCell id="hnKrM7pCxcYFdensCzO5-36" value="水质分析结果" style="strokeWidth=2;html=1;shape=mxgraph.flowchart.annotation_1;align=left;pointerEvents=1;fontSize=17;" vertex="1" parent="WIyWlLk6GJQsqaUBKTNV-1">
          <mxGeometry x="315" y="410" width="160" height="70" as="geometry" />
        </mxCell>
        <mxCell id="hnKrM7pCxcYFdensCzO5-38" value="保存到数据库" style="text;html=1;align=center;verticalAlign=middle;resizable=0;points=[];autosize=1;strokeColor=none;fillColor=none;fontSize=17;" vertex="1" parent="WIyWlLk6GJQsqaUBKTNV-1">
          <mxGeometry x="430" y="410" width="130" height="30" as="geometry" />
        </mxCell>
        <mxCell id="hnKrM7pCxcYFdensCzO5-39" value="水质检测员" style="whiteSpace=wrap;html=1;fontSize=17;" vertex="1" parent="WIyWlLk6GJQsqaUBKTNV-1">
          <mxGeometry x="120" y="415" width="120" height="60" as="geometry" />
        </mxCell>
        <mxCell id="hnKrM7pCxcYFdensCzO5-41" value="发送结果" style="text;html=1;align=center;verticalAlign=middle;resizable=0;points=[];autosize=1;strokeColor=none;fillColor=none;fontSize=16;" vertex="1" parent="WIyWlLk6GJQsqaUBKTNV-1">
          <mxGeometry x="230" y="415" width="90" height="30" as="geometry" />
        </mxCell>
      </root>
    </mxGraphModel>
  </diagram>
</mxfile>
